<svg width="175" height="44" viewBox="0 0 175 44" fill="none" xmlns="http://www.w3.org/2000/svg">
<rect y="0.5" width="71" height="43" rx="3" fill="black"/>
<path d="M35.8166 18.3395C35.6176 18.4404 35.3824 18.4404 35.1834 18.3395L2.61187 1.82433C1.95497 1.49125 2.19191 0.5 2.92844 0.5L68.0716 0.5C68.8081 0.5 69.045 1.49125 68.3881 1.82433L35.8166 18.3395Z" fill="#1C9D27"/>
<path d="M84.8208 8.81818V35H79.2853V8.81818H84.8208ZM94.7189 23.6477V35H89.2729V15.3636H94.4632V18.8281H94.6934C95.128 17.6861 95.8567 16.7827 96.8794 16.1179C97.9022 15.4446 99.1422 15.108 100.6 15.108C101.963 15.108 103.152 15.4062 104.166 16.0028C105.181 16.5994 105.969 17.4517 106.531 18.5597C107.094 19.6591 107.375 20.9716 107.375 22.4972V35H101.929V23.4688C101.938 22.267 101.631 21.3295 101.009 20.6562C100.387 19.9744 99.53 19.6335 98.4391 19.6335C97.7061 19.6335 97.0584 19.7912 96.4959 20.1065C95.9419 20.4219 95.5073 20.8821 95.1919 21.4872C94.8851 22.0838 94.7275 22.804 94.7189 23.6477ZM129.271 15.3636L122.406 35H116.27L109.405 15.3636H115.157L119.236 29.4134H119.44L123.506 15.3636H129.271ZM132.058 35V15.3636H137.504V35H132.058ZM134.794 12.8324C133.984 12.8324 133.29 12.5639 132.71 12.027C132.139 11.4815 131.854 10.8295 131.854 10.071C131.854 9.32102 132.139 8.67756 132.71 8.14062C133.29 7.59517 133.984 7.32244 134.794 7.32244C135.604 7.32244 136.294 7.59517 136.865 8.14062C137.444 8.67756 137.734 9.32102 137.734 10.071C137.734 10.8295 137.444 11.4815 136.865 12.027C136.294 12.5639 135.604 12.8324 134.794 12.8324ZM152.311 15.3636V19.4545H140.486V15.3636H152.311ZM143.171 10.6591H148.617V28.9659C148.617 29.4687 148.693 29.8608 148.847 30.142C149 30.4148 149.213 30.6065 149.486 30.7173C149.767 30.8281 150.091 30.8835 150.458 30.8835C150.713 30.8835 150.969 30.8622 151.225 30.8196C151.48 30.7685 151.676 30.7301 151.813 30.7045L152.669 34.7571C152.396 34.8423 152.013 34.9403 151.519 35.0511C151.024 35.1705 150.423 35.2429 149.716 35.2685C148.404 35.3196 147.253 35.1449 146.264 34.7443C145.284 34.3437 144.521 33.7216 143.976 32.8778C143.431 32.0341 143.162 30.9687 143.171 29.6818V10.6591ZM164.597 35.3835C162.577 35.3835 160.838 34.9744 159.381 34.1562C157.932 33.3295 156.816 32.1619 156.031 30.6534C155.247 29.1364 154.855 27.3423 154.855 25.2713C154.855 23.2514 155.247 21.4787 156.031 19.9531C156.816 18.4276 157.919 17.2386 159.343 16.3864C160.774 15.5341 162.453 15.108 164.379 15.108C165.675 15.108 166.881 15.3168 167.997 15.7344C169.122 16.1435 170.102 16.7614 170.938 17.5881C171.781 18.4148 172.438 19.4545 172.906 20.7074C173.375 21.9517 173.61 23.4091 173.61 25.0795V26.5753H157.029V23.2003H168.483C168.483 22.4162 168.313 21.7216 167.972 21.1165C167.631 20.5114 167.158 20.0384 166.553 19.6974C165.956 19.348 165.262 19.1733 164.469 19.1733C163.642 19.1733 162.909 19.3651 162.27 19.7486C161.639 20.1236 161.145 20.6307 160.787 21.2699C160.429 21.9006 160.246 22.6037 160.237 23.3793V26.5881C160.237 27.5597 160.416 28.3991 160.774 29.1065C161.141 29.8139 161.656 30.3594 162.321 30.7429C162.986 31.1264 163.774 31.3182 164.686 31.3182C165.291 31.3182 165.845 31.233 166.348 31.0625C166.851 30.892 167.281 30.6364 167.639 30.2955C167.997 29.9545 168.27 29.5369 168.458 29.0426L173.494 29.375C173.239 30.5852 172.715 31.642 171.922 32.5455C171.138 33.4403 170.124 34.1392 168.879 34.642C167.644 35.1364 166.216 35.3835 164.597 35.3835Z" fill="black"/>
</svg>
