<svg width="98" height="89" viewBox="0 0 98 89" fill="none" xmlns="http://www.w3.org/2000/svg">
<rect x="13.5" width="71" height="43" rx="3" fill="#151313"/>
<path d="M49.3166 17.8395C49.1176 17.9404 48.8824 17.9404 48.6834 17.8395L16.1119 1.32433C15.455 0.99125 15.6919 0 16.4284 0L81.5716 0C82.3081 0 82.545 0.99125 81.8881 1.32433L49.3166 17.8395Z" fill="#1C9D27"/>
<path d="M7.82085 53.8182V80H2.28533V53.8182H7.82085ZM17.7189 68.6477V80H12.2729V60.3636H17.4632V63.8281H17.6934C18.128 62.6861 18.8567 61.7827 19.8794 61.1179C20.9022 60.4446 22.1422 60.108 23.5996 60.108C24.9632 60.108 26.1522 60.4062 27.1664 61.0028C28.1806 61.5994 28.9689 62.4517 29.5314 63.5597C30.0939 64.6591 30.3752 65.9716 30.3752 67.4972V80H24.9292V68.4688C24.9377 67.267 24.6309 66.3295 24.0087 65.6562C23.3865 64.9744 22.53 64.6335 21.4391 64.6335C20.7061 64.6335 20.0584 64.7912 19.4959 65.1065C18.9419 65.4219 18.5073 65.8821 18.1919 66.4872C17.8851 67.0838 17.7275 67.804 17.7189 68.6477ZM52.2711 60.3636L45.4061 80H39.2697L32.4047 60.3636H38.1575L42.2356 74.4134H42.4402L46.5055 60.3636H52.2711ZM55.0581 80V60.3636H60.5041V80H55.0581ZM57.7939 57.8324C56.9842 57.8324 56.2896 57.5639 55.71 57.027C55.139 56.4815 54.8535 55.8295 54.8535 55.071C54.8535 54.321 55.139 53.6776 55.71 53.1406C56.2896 52.5952 56.9842 52.3224 57.7939 52.3224C58.6035 52.3224 59.2939 52.5952 59.8649 53.1406C60.4444 53.6776 60.7342 54.321 60.7342 55.071C60.7342 55.8295 60.4444 56.4815 59.8649 57.027C59.2939 57.5639 58.6035 57.8324 57.7939 57.8324ZM75.3113 60.3636V64.4545H63.486V60.3636H75.3113ZM66.1706 55.6591H71.6167V73.9659C71.6167 74.4687 71.6934 74.8608 71.8468 75.142C72.0002 75.4148 72.2132 75.6065 72.486 75.7173C72.7672 75.8281 73.0911 75.8835 73.4576 75.8835C73.7132 75.8835 73.9689 75.8622 74.2246 75.8196C74.4803 75.7685 74.6763 75.7301 74.8127 75.7045L75.6692 79.7571C75.3965 79.8423 75.013 79.9403 74.5186 80.0511C74.0243 80.1705 73.4235 80.2429 72.7161 80.2685C71.4036 80.3196 70.253 80.1449 69.2644 79.7443C68.2843 79.3437 67.5215 78.7216 66.976 77.8778C66.4306 77.0341 66.1621 75.9687 66.1706 74.6818V55.6591ZM87.5968 80.3835C85.5769 80.3835 83.8382 79.9744 82.3809 79.1562C80.932 78.3295 79.8155 77.1619 79.0314 75.6534C78.2473 74.1364 77.8553 72.3423 77.8553 70.2713C77.8553 68.2514 78.2473 66.4787 79.0314 64.9531C79.8155 63.4276 80.9192 62.2386 82.3425 61.3864C83.7743 60.5341 85.4533 60.108 87.3794 60.108C88.6749 60.108 89.8809 60.3168 90.9973 60.7344C92.1223 61.1435 93.1025 61.7614 93.9377 62.5881C94.7814 63.4148 95.4377 64.4545 95.9064 65.7074C96.3752 66.9517 96.6096 68.4091 96.6096 70.0795V71.5753H80.0286V68.2003H91.4831C91.4831 67.4162 91.3127 66.7216 90.9718 66.1165C90.6309 65.5114 90.1578 65.0384 89.5527 64.6974C88.9561 64.348 88.2615 64.1733 87.4689 64.1733C86.6422 64.1733 85.9093 64.3651 85.2701 64.7486C84.6394 65.1236 84.1451 65.6307 83.7871 66.2699C83.4292 66.9006 83.2459 67.6037 83.2374 68.3793V71.5881C83.2374 72.5597 83.4164 73.3991 83.7743 74.1065C84.1408 74.8139 84.6564 75.3594 85.3212 75.7429C85.986 76.1264 86.7743 76.3182 87.6863 76.3182C88.2914 76.3182 88.8453 76.233 89.3482 76.0625C89.851 75.892 90.2814 75.6364 90.6394 75.2955C90.9973 74.9545 91.2701 74.5369 91.4576 74.0426L96.4945 74.375C96.2388 75.5852 95.7147 76.642 94.9221 77.5455C94.138 78.4403 93.1238 79.1392 91.8794 79.642C90.6436 80.1364 89.2161 80.3835 87.5968 80.3835Z" fill="#090909"/>
</svg>
